<?xml version="1.0" encoding="UTF-8"?>
<svg width="753px" height="285px" viewBox="0 0 753 285" version="1.1" xmlns="http://www.w3.org/2000/svg" xmlns:xlink="http://www.w3.org/1999/xlink">
    <title>Group 2</title>
    <g id="assets" stroke="none" stroke-width="1" fill="none" fill-rule="evenodd">
        <g id="Group-2">
            <rect id="Rectangle" fill="#FFFFFF" x="0" y="0" width="753" height="285"></rect>
            <path d="M102.320312,216 L102.320312,133.628906 C103.445312,132.152344 104.693359,130.816406 106.064453,129.621094 C107.435547,128.425781 108.964844,127.40625 110.652344,126.5625 C112.480469,125.578125 114.519531,124.839844 116.769531,124.347656 C119.019531,123.855469 121.445312,123.609375 124.046875,123.609375 C127.421875,123.609375 130.445312,124.048828 133.117188,124.927734 C135.789062,125.806641 138.074219,127.160156 139.972656,128.988281 C141.871094,130.816406 143.330078,133.207031 144.349609,136.160156 C145.369141,139.113281 145.878906,142.628906 145.878906,146.707031 L145.878906,216 L175.199219,216 L175.199219,146.917969 C175.199219,138.550781 174.197266,131.396484 172.193359,125.455078 C170.189453,119.513672 167.394531,114.644531 163.808594,110.847656 C160.222656,107.050781 155.933594,104.255859 150.941406,102.462891 C145.949219,100.669922 140.464844,99.7734375 134.488281,99.7734375 C130.410156,99.7734375 126.542969,100.371094 122.886719,101.566406 C119.230469,102.761719 115.890625,104.449219 112.867188,106.628906 C110.898438,108.035156 109.017578,109.669922 107.224609,111.533203 C105.431641,113.396484 103.796875,115.417969 102.320312,117.597656 L102.320312,54 L73,54 L73,216 L102.320312,216 Z M257.992188,218.109375 C269.03125,218.109375 278.59375,215.964844 286.679688,211.675781 C294.765625,207.386719 300.671875,202.605469 304.398438,197.332031 L289.738281,181.511719 C286.363281,185.871094 281.96875,189.140625 276.554688,191.320312 C271.140625,193.5 265.550781,194.589844 259.785156,194.589844 C255.707031,194.589844 251.945312,193.957031 248.5,192.691406 C245.054688,191.425781 241.996094,189.632812 239.324219,187.3125 C236.722656,185.0625 234.648438,182.548828 233.101562,179.771484 C231.554688,176.994141 230.289062,173.320312 229.304688,168.75 L229.304688,168.433594 L306.71875,168.433594 L306.71875,155.988281 C306.71875,147.621094 305.558594,139.974609 303.238281,133.048828 C300.917969,126.123047 297.542969,120.199219 293.113281,115.277344 C288.613281,110.355469 283.146484,106.541016 276.712891,103.833984 C270.279297,101.126953 262.949219,99.7734375 254.722656,99.7734375 C246.777344,99.7734375 239.429688,101.214844 232.679688,104.097656 C225.929688,106.980469 220.09375,111.023438 215.171875,116.226562 C210.25,121.429688 206.417969,127.634766 203.675781,134.841797 C200.933594,142.048828 199.5625,150.011719 199.5625,158.730469 L199.5625,162.949219 C199.5625,170.613281 200.951172,177.802734 203.728516,184.517578 C206.505859,191.232422 210.460938,197.050781 215.59375,201.972656 C220.726562,206.964844 226.878906,210.902344 234.050781,213.785156 C241.222656,216.667969 249.203125,218.109375 257.992188,218.109375 Z M369.367188,218.109375 C372.953125,218.109375 376.292969,217.775391 379.386719,217.107422 C382.480469,216.439453 385.328125,215.507812 387.929688,214.3125 C390.460938,213.1875 392.78125,211.851562 394.890625,210.304688 C397,208.757812 398.863281,207.105469 400.480469,205.347656 C400.832031,207.386719 401.253906,209.320312 401.746094,211.148438 C402.238281,212.976562 402.835938,214.59375 403.539062,216 L433.28125,216 L433.28125,214.207031 C431.804688,211.324219 430.679688,207.878906 429.90625,203.871094 C429.132812,199.863281 428.746094,194.800781 428.746094,188.683594 L428.746094,139.746094 C428.746094,133.136719 427.515625,127.318359 425.054688,122.291016 C422.59375,117.263672 419.183594,113.097656 414.824219,109.792969 C410.464844,106.488281 405.314453,103.992188 399.373047,102.304688 C393.431641,100.617188 387.015625,99.7734375 380.125,99.7734375 C372.460938,99.7734375 365.658203,100.740234 359.716797,102.673828 C353.775391,104.607422 348.765625,107.226562 344.6875,110.53125 C340.539062,113.835938 337.392578,117.667969 335.248047,122.027344 C333.103516,126.386719 332.03125,130.992188 332.03125,135.84375 L361.351562,135.84375 C361.351562,133.804688 361.650391,131.941406 362.248047,130.253906 C362.845703,128.566406 363.777344,127.125 365.042969,125.929688 C366.449219,124.59375 368.277344,123.556641 370.527344,122.818359 C372.777344,122.080078 375.449219,121.710938 378.542969,121.710938 C382.058594,121.710938 385.134766,122.150391 387.771484,123.029297 C390.408203,123.908203 392.605469,125.15625 394.363281,126.773438 C396.050781,128.320312 397.316406,130.166016 398.160156,132.310547 C399.003906,134.455078 399.425781,136.863281 399.425781,139.535156 L399.425781,146.285156 L383.078125,146.285156 C374.640625,146.285156 367.169922,147.041016 360.666016,148.552734 C354.162109,150.064453 348.695312,152.261719 344.265625,155.144531 C339.34375,158.308594 335.652344,162.333984 333.191406,167.220703 C330.730469,172.107422 329.5,177.714844 329.5,184.042969 C329.5,188.964844 330.484375,193.517578 332.453125,197.701172 C334.421875,201.884766 337.164062,205.488281 340.679688,208.511719 C344.195312,211.535156 348.396484,213.890625 353.283203,215.578125 C358.169922,217.265625 363.53125,218.109375 369.367188,218.109375 Z M503.417969,218.109375 C509.816406,218.109375 515.441406,216.878906 520.292969,214.417969 C525.144531,211.957031 529.363281,208.511719 532.949219,204.082031 L534.425781,216 L560.898438,216 L560.898438,54 L531.472656,54 L531.472656,112.113281 C527.957031,108.175781 523.931641,105.134766 519.396484,102.990234 C514.861328,100.845703 509.605469,99.7734375 503.628906,99.7734375 C496.527344,99.7734375 490.216797,101.179688 484.697266,103.992188 C479.177734,106.804688 474.484375,110.777344 470.617188,115.910156 C466.75,121.042969 463.814453,127.195312 461.810547,134.367188 C459.806641,141.539062 458.804688,149.449219 458.804688,158.097656 L458.804688,160.3125 C458.804688,168.609375 459.824219,176.291016 461.863281,183.357422 C463.902344,190.423828 466.855469,196.523438 470.722656,201.65625 C474.519531,206.789062 479.177734,210.814453 484.697266,213.732422 C490.216797,216.650391 496.457031,218.109375 503.417969,218.109375 Z M642.214844,218.214844 C650.019531,218.214844 657.085938,217.353516 663.414062,215.630859 C669.742188,213.908203 675.15625,211.5 679.65625,208.40625 C684.085938,205.3125 687.513672,201.638672 689.939453,197.384766 C692.365234,193.130859 693.578125,188.472656 693.578125,183.410156 C693.578125,177.925781 692.365234,173.197266 689.939453,169.224609 C687.513672,165.251953 684.15625,161.859375 679.867188,159.046875 C675.578125,156.304688 670.480469,154.054688 664.574219,152.296875 C658.667969,150.539062 652.269531,149.097656 645.378906,147.972656 C640.597656,147.269531 636.660156,146.443359 633.566406,145.494141 C630.472656,144.544922 628.046875,143.472656 626.289062,142.277344 C624.460938,141.152344 623.195312,139.869141 622.492188,138.427734 C621.789062,136.986328 621.4375,135.421875 621.4375,133.734375 C621.4375,132.046875 621.841797,130.447266 622.650391,128.935547 C623.458984,127.423828 624.636719,126.105469 626.183594,124.980469 C627.871094,123.714844 630.050781,122.730469 632.722656,122.027344 C635.394531,121.324219 638.523438,120.972656 642.109375,120.972656 C646.328125,120.972656 649.931641,121.5 652.919922,122.554688 C655.908203,123.609375 658.28125,125.015625 660.039062,126.773438 C661.304688,128.109375 662.253906,129.603516 662.886719,131.255859 C663.519531,132.908203 663.835938,134.683594 663.835938,136.582031 L693.15625,136.582031 C693.15625,131.308594 691.996094,126.421875 689.675781,121.921875 C687.355469,117.421875 684.015625,113.519531 679.65625,110.214844 C675.226562,106.980469 669.847656,104.431641 663.519531,102.568359 C657.191406,100.705078 650.054688,99.7734375 642.109375,99.7734375 C634.515625,99.7734375 627.695312,100.722656 621.648438,102.621094 C615.601562,104.519531 610.46875,107.085938 606.25,110.320312 C602.03125,113.554688 598.796875,117.316406 596.546875,121.605469 C594.296875,125.894531 593.171875,130.394531 593.171875,135.105469 C593.171875,139.957031 594.279297,144.246094 596.494141,147.972656 C598.708984,151.699219 601.785156,154.96875 605.722656,157.78125 C609.660156,160.664062 614.388672,163.107422 619.908203,165.111328 C625.427734,167.115234 631.527344,168.785156 638.207031,170.121094 C643.480469,171.105469 647.839844,172.089844 651.285156,173.074219 C654.730469,174.058594 657.507812,175.113281 659.617188,176.238281 C661.65625,177.433594 663.080078,178.699219 663.888672,180.035156 C664.697266,181.371094 665.101562,182.917969 665.101562,184.675781 C665.101562,186.433594 664.662109,188.050781 663.783203,189.527344 C662.904297,191.003906 661.585938,192.304688 659.828125,193.429688 C658,194.554688 655.662109,195.451172 652.814453,196.119141 C649.966797,196.787109 646.644531,197.121094 642.847656,197.121094 C639.683594,197.121094 636.607422,196.804688 633.619141,196.171875 C630.630859,195.539062 627.976562,194.519531 625.65625,193.113281 C623.335938,191.777344 621.4375,190.001953 619.960938,187.787109 C618.484375,185.572266 617.640625,182.917969 617.429688,179.824219 L589.480469,179.824219 C589.480469,184.464844 590.623047,189.087891 592.908203,193.693359 C595.193359,198.298828 598.550781,202.394531 602.980469,205.980469 C607.410156,209.636719 612.912109,212.589844 619.486328,214.839844 C626.060547,217.089844 633.636719,218.214844 642.214844,218.214844 Z" id="heads" stroke="#272727" stroke-width="3" fill="#FFFFFF" fill-rule="nonzero"></path>
            <path d="M149.684394,236.069364 L149.684394,226.05395 L135.90061,226.05395 L135.90061,168 L109,168 L109,178.05973 L123.406277,178.05973 L123.406277,226.05395 L109,226.05395 L109,236.069364 L149.684394,236.069364 Z M182.142982,237 C185.72973,237 188.931125,236.386962 191.747167,235.160886 C194.563208,233.934811 196.934612,232.228645 198.861378,230.042389 C200.788143,227.856134 202.255449,225.27842 203.263296,222.309249 C204.271142,219.340077 204.775065,216.097624 204.775065,212.581888 L204.775065,211.651252 C204.775065,208.165061 204.271142,204.93738 203.263296,201.968208 C202.255449,198.999037 200.788143,196.421323 198.861378,194.235067 C196.904969,192.048812 194.518745,190.33526 191.702703,189.094412 C188.886661,187.853565 185.670445,187.233141 182.054054,187.233141 C178.437663,187.233141 175.228858,187.853565 172.427637,189.094412 C169.626417,190.33526 167.262424,192.048812 165.335658,194.235067 C163.37925,196.421323 161.897123,198.999037 160.889276,201.968208 C159.88143,204.93738 159.377507,208.165061 159.377507,211.651252 L159.377507,212.581888 C159.377507,216.097624 159.88143,219.340077 160.889276,222.309249 C161.897123,225.27842 163.37925,227.856134 165.335658,230.042389 C167.262424,232.228645 169.641238,233.934811 172.472101,235.160886 C175.302964,236.386962 178.526591,237 182.142982,237 Z M230.119442,236.069364 L235.232781,210.454721 L236.210985,205.579961 L237.233653,210.454721 L242.524847,236.069364 L253.374019,236.069364 L262,188.119461 L250.661726,188.119461 L247.104621,216.393064 L246.482127,221.046243 L245.637315,216.481696 L240.435048,188.119461 L232.164778,188.119461 L226.962511,216.614644 L226.117698,221.179191 L225.539669,216.614644 L221.938099,188.119461 L210.644289,188.119461 L219.27027,236.069364 L230.119442,236.069364 Z" id="low" stroke="#272727" stroke-width="2.55" fill="#272727" fill-rule="nonzero"></path>
        </g>
    </g>
</svg>