<?xml version="1.0" encoding="UTF-8"?>
<svg width="679px" height="307px" viewBox="0 0 679 307" version="1.1" xmlns="http://www.w3.org/2000/svg" xmlns:xlink="http://www.w3.org/1999/xlink">
    <title>lowheads</title>
    <g id="Page-1" stroke="none" stroke-width="1" fill="none" fill-rule="evenodd">
        <g id="lowheads" fill-rule="nonzero">
            <rect id="Rectangle" fill="#FFFFFF" x="0" y="0" width="679" height="307"></rect>
            <path d="M147.985384,208.489403 L147.985384,152.309569 C148.752209,151.302505 149.602906,150.391351 150.537474,149.576108 C151.472043,148.760865 152.514446,148.065511 153.664684,147.490045 C154.910775,146.818668 156.300646,146.315136 157.834296,145.979447 C159.367947,145.643759 161.021414,145.475915 162.794697,145.475915 C165.095173,145.475915 167.156016,145.775637 168.977227,146.37508 C170.798436,146.974524 172.35605,147.897666 173.650068,149.144508 C174.944086,150.391351 175.938562,152.021837 176.633497,154.035966 C177.328433,156.050096 177.675901,158.44787 177.675901,161.229287 L177.675901,208.489403 L197.661285,208.489403 L197.661285,161.373154 C197.661285,155.666452 196.978331,150.786983 195.612423,146.734746 C194.246516,142.682509 192.341434,139.361593 189.897179,136.771997 C187.452923,134.182402 184.529402,132.276172 181.126614,131.053308 C177.723827,129.830443 173.985554,129.219011 169.911795,129.219011 C167.132053,129.219011 164.496091,129.626633 162.003909,130.441875 C159.511727,131.257119 157.235214,132.40805 155.174372,133.894669 C153.832427,134.853778 152.550391,135.968743 151.328263,137.239563 C150.106136,138.510383 148.991842,139.889103 147.985384,141.375722 L147.985384,98 L128,98 L128,208.489403 L147.985384,208.489403 Z M254.094834,209.928067 C261.619307,209.928067 268.137322,208.465425 273.648879,205.540141 C279.160435,202.614858 283.186268,199.353886 285.726377,195.757225 L275.733684,184.967245 C273.433209,187.940484 270.437797,190.170413 266.747451,191.657032 C263.057104,193.143652 259.246941,193.886962 255.316961,193.886962 C252.537219,193.886962 249.973147,193.455363 247.624745,192.592164 C245.276343,191.728966 243.191537,190.506101 241.370326,188.923571 C239.597043,187.388996 238.183209,185.674588 237.128824,183.780346 C236.074439,181.886106 235.21176,179.380432 234.540789,176.263327 L234.540789,176.047527 L287.307954,176.047527 L287.307954,167.559409 C287.307954,161.852708 286.517165,156.637551 284.935588,151.913937 C283.354011,147.190323 281.053535,143.150075 278.03416,139.793192 C274.966859,136.436309 271.240567,133.834725 266.855286,131.988439 C262.470003,130.142154 257.473658,129.219011 251.866247,129.219011 C246.450544,129.219011 241.442217,130.202098 236.841265,132.168272 C232.240313,134.134447 228.262407,136.891886 224.907546,140.44059 C221.552685,143.989296 218.940687,148.221366 217.07155,153.136802 C215.202413,158.052237 214.267845,163.483194 214.267845,169.429673 L214.267845,172.307001 C214.267845,177.534147 215.214395,182.437593 217.107495,187.017341 C219.000595,191.597088 221.696465,195.565403 225.195105,198.922286 C228.693745,202.327125 232.887321,205.012631 237.775833,206.978805 C242.664344,208.94498 248.104011,209.928067 254.094834,209.928067 Z M330.010537,209.928067 C332.454793,209.928067 334.731305,209.700278 336.840075,209.244701 C338.948844,208.789124 340.889871,208.153714 342.663155,207.338471 C344.388512,206.571184 345.970088,205.660029 347.407886,204.60501 C348.845683,203.549989 350.115737,202.423036 351.218049,201.224149 C351.457682,202.614858 351.745241,203.933633 352.080728,205.180475 C352.416213,206.427317 352.82359,207.530293 353.302855,208.489403 L373.575799,208.489403 L373.575799,207.266538 C372.569341,205.300364 371.802516,202.950546 371.275323,200.217084 C370.74813,197.483622 370.484535,194.030828 370.484535,189.858703 L370.484535,156.481696 C370.484535,151.973881 369.645819,148.005566 367.968389,144.57675 C366.290959,141.147934 363.96652,138.306572 360.995072,136.052665 C358.023624,133.798758 354.513001,132.096339 350.463205,130.945408 C346.41341,129.794477 342.040109,129.219011 337.343304,129.219011 C332.119307,129.219011 327.48241,129.878398 323.432614,131.197174 C319.382818,132.51595 315.968049,134.30229 313.188307,136.556198 C310.360639,138.810105 308.215924,141.423678 306.754164,144.396917 C305.292403,147.370156 304.561523,150.51124 304.561523,153.820167 L324.546907,153.820167 C324.546907,152.429459 324.750595,151.158638 325.157971,150.007707 C325.565347,148.856776 326.200374,147.873689 327.063053,147.058446 C328.021584,146.147292 329.267675,145.439949 330.801326,144.936416 C332.334976,144.432884 334.156186,144.181118 336.264956,144.181118 C338.661285,144.181118 340.758073,144.480839 342.555319,145.080283 C344.352566,145.679726 345.850272,146.530935 347.048436,147.633912 C348.198674,148.688931 349.061353,149.947763 349.636472,151.410405 C350.211591,152.873046 350.49915,154.515521 350.49915,156.337829 L350.49915,160.941554 L339.35622,160.941554 C333.605031,160.941554 328.512831,161.457076 324.079623,162.488118 C319.646414,163.519161 315.920122,165.017769 312.900748,166.983943 C309.545887,169.14194 307.029742,171.88739 305.352311,175.220295 C303.674881,178.553201 302.836166,182.377649 302.836166,186.693642 C302.836166,190.050525 303.507138,193.155641 304.849082,196.008992 C306.191027,198.862342 308.060163,201.32006 310.456493,203.382145 C312.852821,205.44423 315.716434,207.050738 319.047332,208.20167 C322.378229,209.352601 326.032631,209.928067 330.010537,209.928067 Z M421.382563,209.928067 C425.743882,209.928067 429.578008,209.088846 432.884942,207.410405 C436.191876,205.731963 439.067471,203.382145 441.511727,200.36095 L442.518185,208.489403 L460.562543,208.489403 L460.562543,98 L440.505268,98 L440.505268,137.635196 C438.108939,134.949689 435.365143,132.875616 432.273878,131.412973 C429.182614,129.950332 425.600102,129.219011 421.526342,129.219011 C416.685758,129.219011 412.384347,130.178121 408.622111,132.096339 C404.859874,134.014558 401.660775,136.724042 399.024813,140.224791 C396.388851,143.725541 394.387916,147.921644 393.022009,152.813102 C391.656102,157.70456 390.973148,163.09955 390.973148,168.998073 L390.973148,170.50867 C390.973148,176.167416 391.668083,181.406551 393.057954,186.226076 C394.447825,191.0456 396.460741,195.205738 399.096703,198.706487 C401.684738,202.207236 404.859874,204.952687 408.622111,206.942839 C412.384347,208.932991 416.637831,209.928067 421.382563,209.928067 Z M515.989633,210 C521.309483,210 526.126105,209.412546 530.439497,208.237636 C534.75289,207.062727 538.443236,205.420252 541.510537,203.310212 C544.529912,201.200171 546.866333,198.694498 548.519799,195.793192 C550.173266,192.891886 551,189.714836 551,186.262042 C551,182.521515 550.173266,179.296511 548.519799,176.587026 C546.866333,173.877542 544.577838,171.563691 541.654317,169.645472 C538.730795,167.775209 535.256118,166.240634 531.230286,165.041747 C527.204453,163.84286 522.843134,162.859773 518.146329,162.092485 C514.887321,161.612931 512.203433,161.049454 510.094663,160.402055 C507.985894,159.754656 506.332427,159.023335 505.134262,158.208093 C503.888172,157.440805 503.025493,156.565618 502.546227,155.58253 C502.066961,154.599443 501.827328,153.532434 501.827328,152.381503 C501.827328,151.230572 502.102906,150.139585 502.654062,149.108542 C503.205217,148.077499 504.007988,147.178334 505.062373,146.411047 C506.212611,145.547849 507.698334,144.876472 509.519544,144.396917 C511.340754,143.917363 513.473488,143.677585 515.917743,143.677585 C518.793338,143.677585 521.249575,144.037251 523.286455,144.756583 C525.323334,145.475915 526.940857,146.435025 528.139021,147.633912 C529.0017,148.545065 529.648708,149.564119 530.080048,150.691072 C530.511387,151.818026 530.727057,153.028902 530.727057,154.323699 L550.712441,154.323699 C550.712441,150.727039 549.921652,147.394134 548.340075,144.324984 C546.758498,141.255834 544.481985,138.594305 541.510537,136.340398 C538.491162,134.134447 534.824779,132.396061 530.511387,131.125241 C526.197994,129.854421 521.333447,129.219011 515.917743,129.219011 C510.741672,129.219011 506.092794,129.86641 501.971108,131.161208 C497.849422,132.456005 494.350782,134.20638 491.475187,136.412331 C488.599592,138.618283 486.394969,141.1839 484.861319,144.109184 C483.327668,147.034468 482.560843,150.103618 482.560843,153.316635 C482.560843,156.625562 483.315687,159.550846 484.825374,162.092485 C486.335061,164.634126 488.431849,166.864055 491.115737,168.782273 C493.799626,170.748447 497.022689,172.4149 500.784925,173.781631 C504.547162,175.148362 508.704793,176.287304 513.257818,177.198459 C516.852312,177.869835 519.82376,178.541212 522.172162,179.212588 C524.520564,179.883965 526.413664,180.603297 527.851462,181.370584 C529.241332,182.185827 530.211846,183.049026 530.763001,183.96018 C531.314157,184.871334 531.589735,185.926354 531.589735,187.125241 C531.589735,188.324128 531.290193,189.427103 530.691111,190.434168 C530.092029,191.441233 529.193406,192.32841 527.995241,193.095697 C526.74915,193.862985 525.155591,194.474417 523.214565,194.929994 C521.273538,195.38557 519.009007,195.613359 516.420972,195.613359 C514.264276,195.613359 512.167488,195.39756 510.130609,194.96596 C508.093729,194.53436 506.2845,193.839006 504.702923,192.879897 C503.121346,191.968743 501.827328,190.757867 500.82087,189.24727 C499.814412,187.736673 499.239293,185.926354 499.095514,183.816313 L480.044698,183.816313 C480.044698,186.981374 480.823505,190.134447 482.381118,193.275529 C483.938732,196.416613 486.227226,199.210019 489.246601,201.655748 C492.265975,204.149433 496.01623,206.163562 500.497366,207.698137 C504.978501,209.232712 510.14259,210 515.989633,210 Z" id="heads" stroke="#272727" stroke-width="3" fill="#FFFFFF"></path>
            <path d="M179.654751,221.366089 L179.654751,214.543995 L170.285382,214.543995 L170.285382,175 L152,175 L152,181.85228 L161.792502,181.85228 L161.792502,214.543995 L152,214.543995 L152,221.366089 L179.654751,221.366089 Z M201.718105,222 C204.156156,222 206.332268,221.582423 208.24644,220.74727 C210.160612,219.912118 211.772547,218.749947 213.082244,217.260758 C214.39194,215.77157 215.389325,214.015735 216.074397,211.993257 C216.759469,209.970777 217.102005,207.76215 217.102005,205.367373 L217.102005,204.733462 C217.102005,202.35881 216.759469,200.160244 216.074397,198.137765 C215.389325,196.115286 214.39194,194.359452 213.082244,192.870263 C211.752397,191.381075 210.130389,190.213873 208.216216,189.368657 C206.302044,188.523443 204.115858,188.100835 201.657658,188.100835 C199.199457,188.100835 197.018309,188.523443 195.114211,189.368657 C193.210114,190.213873 191.603216,191.381075 190.293519,192.870263 C188.963673,194.359452 187.956214,196.115286 187.271142,198.137765 C186.58607,200.160244 186.243534,202.35881 186.243534,204.733462 L186.243534,205.367373 C186.243534,207.76215 186.58607,209.970777 187.271142,211.993257 C187.956214,214.015735 188.963673,215.77157 190.293519,217.260758 C191.603216,218.749947 193.220188,219.912118 195.144435,220.74727 C197.068681,221.582423 199.259905,222 201.718105,222 Z M234.329555,221.366089 L237.805289,203.918433 L238.470212,200.597944 L239.165359,203.918433 L242.761988,221.366089 L250.136588,221.366089 L256,188.70456 L248.292938,188.70456 L245.875036,207.963391 L245.451903,211.132948 L244.877652,208.023764 L241.341471,188.70456 L235.719849,188.70456 L232.183668,208.114323 L231.609416,211.223507 L231.216507,208.114323 L228.768381,188.70456 L221.091543,188.70456 L226.954955,221.366089 L234.329555,221.366089 Z" id="low" stroke="#272727" stroke-width="2.55" fill="#272727"></path>
        </g>
    </g>
</svg>