<?xml version="1.0" encoding="UTF-8"?>
<svg width="1100px" height="556px" viewBox="0 0 1100 556" version="1.1" xmlns="http://www.w3.org/2000/svg" xmlns:xlink="http://www.w3.org/1999/xlink">
    <title>Desktop HD</title>
    <defs>
        <filter x="-58.8%" y="-23.9%" width="221.5%" height="147.8%" filterUnits="objectBoundingBox" id="filter-1">
            <feGaussianBlur stdDeviation="5.1" in="SourceGraphic"></feGaussianBlur>
        </filter>
        <filter x="-58.8%" y="-23.9%" width="221.5%" height="147.8%" filterUnits="objectBoundingBox" id="filter-2">
            <feGaussianBlur stdDeviation="5.1" in="SourceGraphic"></feGaussianBlur>
        </filter>
        <filter x="-35.3%" y="-14.3%" width="174.5%" height="128.7%" filterUnits="objectBoundingBox" id="filter-3">
            <feGaussianBlur stdDeviation="3.06" in="SourceGraphic"></feGaussianBlur>
        </filter>
        <filter x="-35.3%" y="-14.3%" width="174.5%" height="128.7%" filterUnits="objectBoundingBox" id="filter-4">
            <feGaussianBlur stdDeviation="3.06" in="SourceGraphic"></feGaussianBlur>
        </filter>
        <filter x="-23.5%" y="-9.6%" width="158.6%" height="119.1%" filterUnits="objectBoundingBox" id="filter-5">
            <feGaussianBlur stdDeviation="2.04" in="SourceGraphic"></feGaussianBlur>
        </filter>
        <filter x="-23.5%" y="-9.6%" width="158.6%" height="119.1%" filterUnits="objectBoundingBox" id="filter-6">
            <feGaussianBlur stdDeviation="2.04" in="SourceGraphic"></feGaussianBlur>
        </filter>
    </defs>
    <g id="Desktop-HD" stroke="none" stroke-width="1" fill="none" fill-rule="evenodd">
        <rect fill="#FFFFFF" x="0" y="0" width="1100" height="556"></rect>
        <g id="Group-5" transform="translate(77.000000, 148.000000)">
            <text id="heads-copy-14" font-family="RobotoMono-Bold, Roboto Mono" font-size="72" font-weight="bold" fill="#272727">
                <tspan x="0.96484375" y="75">heads</tspan>
            </text>
            <polyline id="Path-6" stroke="#272727" stroke-width="2" points="70 97 70 84 214 84"></polyline>
            <text id="low-copy" font-family="RobotoMono-Medium, Roboto Mono" font-size="21" font-weight="400" fill="#272727">
                <tspan x="3.09692383" y="97">low</tspan>
            </text>
            <polyline id="Path-5-Copy-8" stroke="#272727" stroke-width="2" transform="translate(55.747189, 89.050637) scale(-1, -1) rotate(22.000000) translate(-55.747189, -89.050637) " points="49 90.1039499 51.4230762 96.1012741 54.5989198 90.1744622 61.1672403 92.1643763 56.5941351 87.0357202 62.4943786 84.2516209 55.4143373 82"></polyline>
            <g id="Group-3" transform="translate(68.000000, 170.000000)" fill="#272727">
                <text id="low" font-family="RobotoMono-Light, Roboto Mono" font-size="34.2629482" font-weight="300" letter-spacing="-2.37937127">
                    <tspan x="0" y="44.9940239">l</tspan>
                    <tspan x="18.1817436" y="44.9940239" font-size="51.3944223" letter-spacing="-3.5690569">o</tspan>
                    <tspan x="45.4543591" y="44.9940239" font-family="RobotoMono-Regular, Roboto Mono" font-size="59.9601594" font-weight="normal" letter-spacing="-4.16390017">w</tspan>
                </text>
                <text id="heads" font-family="RobotoMono-Bold, Roboto Mono" font-size="68.5258964" font-weight="bold" letter-spacing="-4.75874254">
                    <tspan x="78.376494" y="72">h</tspan>
                    <tspan x="114.739981" y="72" font-family="RobotoMono-Medium, Roboto Mono" font-size="59.9601594" font-weight="400" letter-spacing="-4.16390017">e</tspan>
                    <tspan x="146.558032" y="72" font-family="RobotoMono-Regular, Roboto Mono" font-size="51.3944223" font-weight="normal" letter-spacing="-3.5690569">a</tspan>
                    <tspan x="173.830648" y="72" font-family="RobotoMono-Light, Roboto Mono" font-size="42.8286853" font-weight="300" letter-spacing="-2.97421431">d</tspan>
                    <tspan x="196.557827" y="72" font-family="RobotoMono-Light, Roboto Mono" font-size="34.2629482" font-weight="300" letter-spacing="-2.37937127">s</tspan>
                </text>
            </g>
            <g id="Group" transform="translate(729.000000, 21.000000)" fill="#272727" font-family="RobotoMono-Regular, Roboto Mono" font-size="48.96" font-weight="normal" letter-spacing="-3.39999992">
                <text id="l" filter="url(#filter-2)">
                    <tspan x="0" y="51">l</tspan>
                </text>
                <text id="o" filter="url(#filter-4)">
                    <tspan x="26.52" y="51">o</tspan>
                </text>
                <text id="w" filter="url(#filter-6)">
                    <tspan x="53.04" y="51">w</tspan>
                </text>
                <text id="heads">
                    <tspan x="85.68" y="51">heads</tspan>
                </text>
            </g>
            <g id="Group-2" transform="translate(367.000000, 0.000000)">
                <g id="Group" transform="translate(65.000000, 7.000000)">
                    <text id="low-copy" font-family="Rakkas-Regular, Rakkas" font-size="29.0540541" font-weight="normal" fill="#272727">
                        <tspan x="31.8432432" y="30">low</tspan>
                    </text>
                    <line x1="0" y1="24.6959459" x2="21.7905405" y2="24.6959459" id="Line" stroke="#272727" stroke-width="1.4527027" stroke-linecap="square"></line>
                    <line x1="82.8040541" y1="24.6959459" x2="104.594595" y2="24.6959459" id="Line-Copy" stroke="#272727" stroke-width="1.4527027" stroke-linecap="square"></line>
                </g>
                <text id="HEADS" font-family="Rakkas-Regular, Rakkas" font-size="81.3513514" font-weight="normal" fill="#272727">
                    <tspan x="0.459780405" y="85">H</tspan>
                    <tspan x="59.5208615" y="85" font-size="56.6554054">EAD</tspan>
                    <tspan x="169.715625" y="85">S</tspan>
                </text>
            </g>
            <g id="Group-4" transform="translate(396.000000, 170.000000)">
                <text id="low-copy-4" font-family="EpilogueRoman-ExtraLight, Epilogue" font-size="72" font-weight="300" fill="#272727">
                    <tspan x="138.32789" y="74">low</tspan>
                </text>
                <text id="heads-copy-3" font-family="EpilogueRoman-SemiBold, Epilogue" font-size="72" font-weight="500" fill="#272727">
                    <tspan x="260.251868" y="74">heads</tspan>
                </text>
                <g id="Group-2-Copy-2" transform="translate(64.000000, 45.500000) rotate(-101.000000) translate(-64.000000, -45.500000) translate(30.000000, -13.000000)">
                    <path d="M4.16999129,52.6436816 C0.542064618,69.183951 -1.09692115,85.6916738 3.03658847,97.7772147 C4.72752298,102.721163 7.38971998,106.917889 11.298171,110.049272 C14.9073234,112.940862 19.5748698,114.920737 25.4998775,115.761669 C31.0114203,116.543919 35.6440565,115.92928 39.5567755,114.217549 C43.8693919,112.330872 47.3015836,109.115313 50.0819631,105.010912 C57.6113942,93.8959505 60.3869738,76.3207039 62.6203261,60.4670754 C63.0954808,57.0941522 63.6473758,53.7342127 64.1911216,50.4242048 C66.3854076,37.066667 68.4892647,24.5203799 64.6988421,15.2828586 C61.9032722,8.46986181 55.8482569,3.5264752 44.272873,1.38615877 C32.1516694,-0.855081068 24.3651268,1.88739076 19.0158818,7.88665797 C11.8339137,15.9413547 8.99458863,29.7060515 5.83473963,44.8129348 C5.29553452,47.3908139 4.7480778,50.0080973 4.16999129,52.6436816 Z" id="Oval" stroke="#A6A5A6" stroke-width="1.215" fill="#A6A5A6"></path>
                    <path d="M8.58095839,59.1128529 C8.58095839,71.0741807 9.99393942,83.4488086 14.2960266,92.0536578 C16.0306696,95.523216 18.235265,98.3731224 21.0277262,100.297812 C23.5557464,102.040238 26.564508,103.015715 30.1256358,103.015715 C38.2931776,103.015715 44.8051607,98.6982879 49.3943806,91.9355869 C54.5156689,84.3888266 57.2576144,73.814057 57.2576144,62.6502528 C57.2576144,60.7916772 57.2734171,58.9340709 57.2891308,57.0880619 C57.384333,45.9039117 57.5088729,35.1407636 53.9634844,27.2410803 C51.4034109,21.5368339 46.8859495,17.3785414 38.9965162,15.6993631 C34.7124905,14.7875558 30.8898835,15.2272844 27.5270329,16.6965903 C23.7877123,18.3303844 20.6207906,21.2268854 18.005144,24.9099439 C11.6870892,33.806316 8.58095839,47.2646393 8.58095839,59.1128529 Z" id="Oval" stroke="#777677" stroke-width="1.62" fill="#777677"></path>
                    <path d="M30.5306358,35.3807148 C27.5945417,35.3807148 25.2075596,35.9642718 23.2773442,37.0699799 C21.2310488,38.2421834 19.7119287,39.9970751 18.571968,42.1935847 C15.595475,47.9287785 15.1406358,56.5476499 15.1406358,66.1607148 C15.1406358,75.5752574 16.0212389,84.0326651 18.9951444,89.7628731 C20.1957084,92.0761551 21.7407576,93.9301444 23.7389456,95.1710068 C25.5974551,96.3251297 27.8416514,96.9407148 30.5306358,96.9407148 C33.2196202,96.9407148 35.4638165,96.3251297 37.322326,95.1710068 C39.320514,93.9301444 40.8655632,92.0761551 42.0661273,89.7628731 C45.0400327,84.0326651 45.9206358,75.5752574 45.9206358,66.1607148 C45.9206358,56.5476499 45.4657966,47.9287785 42.4893036,42.1935847 C41.3493429,39.9970751 39.8302228,38.2421834 37.7839274,37.0699799 C35.853712,35.9642718 33.4667299,35.3807148 30.5306358,35.3807148 Z" id="Oval" stroke="#464646" stroke-width="2.43" fill="#464646" transform="translate(30.530636, 66.160715) rotate(-6.000000) translate(-30.530636, -66.160715) "></path>
                    <path d="M30.3622295,49.1093071 C26.7706384,49.1093071 24.3723797,50.4255205 22.8800705,52.9963238 C21.0065815,56.2237862 20.4397054,61.1353532 20.4397054,67.373631 C20.4397054,73.4079198 21.3936151,78.3306341 23.4274723,81.6863233 C25.175999,84.5712419 27.7594314,86.1970709 31.2103156,86.1970709 C32.8153795,86.1970709 34.1798374,85.8583488 35.3204045,85.1774907 C36.5080976,84.4685008 37.44225,83.3971735 38.1837363,82.031465 C40.01813,78.6527822 40.6897054,73.6026837 40.6897054,67.373631 C40.6897054,61.1958034 40.0277842,56.3207819 38.0916468,53.0984456 C36.5105518,50.4670108 34.013523,49.1093071 30.3622295,49.1093071 Z" id="Oval" stroke="#272727" stroke-width="3.24" fill="#272727" transform="translate(30.564705, 67.653189) rotate(-7.000000) translate(-30.564705, -67.653189) "></path>
                </g>
            </g>
        </g>
    </g>
</svg>