<?xml version="1.0" encoding="UTF-8"?>
<svg width="1100px" height="556px" viewBox="0 0 1100 556" version="1.1" xmlns="http://www.w3.org/2000/svg" xmlns:xlink="http://www.w3.org/1999/xlink">
    <title>Desktop HD Copy 9</title>
    <g id="Desktop-HD-Copy-9" stroke="none" stroke-width="1" fill="none" fill-rule="evenodd">
        <rect fill="#FFFFFF" x="0" y="0" width="1100" height="556"></rect>
        <g id="Group-5" transform="translate(139.000000, 150.000000)">
            <g id="Group-2" transform="translate(0.000000, 19.000000)" fill="#FED500">
                <circle id="Oval" cx="16.5" cy="16.5" r="16.5"></circle>
                <path d="M59.5,33 C68.6126984,33 65.5322592,25.6126984 65.5322592,16.5 C65.5322592,7.38730163 68.6126984,0 59.5,0 C50.3873016,0 43,7.38730163 43,16.5 C43,25.6126984 50.3873016,33 59.5,33 Z" id="Oval-Copy"></path>
                <path d="M102.5,33 C111.612698,33 119,25.6126984 119,16.5 C119,7.38730163 111.612698,8.36914062 102.5,8.36914062 C93.3873016,8.36914062 86,7.38730163 86,16.5 C86,25.6126984 93.3873016,33 102.5,33 Z" id="Oval-Copy-2"></path>
                <path d="M145.5,33 C154.612698,33 162,25.6126984 162,16.5 C162,7.38730163 154.612698,0 145.5,0 C136.387302,0 138.022599,7.38730163 138.022599,16.5 C138.022599,25.6126984 136.387302,33 145.5,33 Z" id="Oval-Copy-3"></path>
                <circle id="Oval-Copy-4" cx="188.5" cy="16.5" r="16.5"></circle>
            </g>
            <path d="M9.7734375,54 L9.7734375,26.5429688 C10.1484375,26.0507812 10.5644531,25.6054688 11.0214844,25.2070312 C11.4785156,24.8085938 11.9882812,24.46875 12.5507812,24.1875 C13.1601562,23.859375 13.8398438,23.6132812 14.5898438,23.4492188 C15.3398438,23.2851562 16.1484375,23.203125 17.015625,23.203125 C18.140625,23.203125 19.1484375,23.3496094 20.0390625,23.6425781 C20.9296875,23.9355469 21.6914062,24.3867188 22.3242188,24.9960938 C22.9570312,25.6054688 23.4433594,26.4023438 23.7832031,27.3867188 C24.1230469,28.3710938 24.2929688,29.5429687 24.2929688,30.9023438 L24.2929688,54 L34.0664062,54 L34.0664062,30.9726563 C34.0664062,28.1835938 33.7324219,25.7988281 33.0644531,23.8183594 C32.3964844,21.8378906 31.4648438,20.2148438 30.2695312,18.9492188 C29.0742188,17.6835938 27.6445312,16.7519531 25.9804688,16.1542969 C24.3164062,15.5566406 22.4882812,15.2578125 20.4960938,15.2578125 C19.1367188,15.2578125 17.8476562,15.4570312 16.6289062,15.8554688 C15.4101562,16.2539062 14.296875,16.8164062 13.2890625,17.5429688 C12.6328125,18.0117188 12.0058594,18.5566406 11.4082031,19.1777344 C10.8105469,19.7988281 10.265625,20.4726562 9.7734375,21.1992188 L9.7734375,0 L0,0 L0,54 L9.7734375,54 Z M61.6640625,54.703125 C65.34375,54.703125 68.53125,53.9882812 71.2265625,52.5585938 C73.921875,51.1289062 75.890625,49.5351562 77.1328125,47.7773438 L72.2460938,42.5039062 C71.1210938,43.9570312 69.65625,45.046875 67.8515625,45.7734375 C66.046875,46.5 64.1835938,46.8632812 62.2617188,46.8632812 C60.9023438,46.8632812 59.6484375,46.6523438 58.5,46.2304688 C57.3515625,45.8085938 56.3320312,45.2109375 55.4414062,44.4375 C54.5742188,43.6875 53.8828125,42.8496094 53.3671875,41.9238281 C52.8515625,40.9980469 52.4296875,39.7734375 52.1015625,38.25 L52.1015625,38.1445312 L77.90625,38.1445312 L77.90625,33.9960938 C77.90625,31.2070312 77.5195312,28.6582031 76.7460938,26.3496094 C75.9726562,24.0410156 74.8476562,22.0664062 73.3710938,20.4257812 C71.8710938,18.7851562 70.0488281,17.5136719 67.9042969,16.6113281 C65.7597656,15.7089844 63.3164062,15.2578125 60.5742188,15.2578125 C57.9257812,15.2578125 55.4765625,15.7382812 53.2265625,16.6992188 C50.9765625,17.6601562 49.03125,19.0078125 47.390625,20.7421875 C45.75,22.4765625 44.4726562,24.5449219 43.5585938,26.9472656 C42.6445312,29.3496094 42.1875,32.0039062 42.1875,34.9101562 L42.1875,36.3164062 C42.1875,38.8710938 42.6503906,41.2675781 43.5761719,43.5058594 C44.5019531,45.7441406 45.8203125,47.6835938 47.53125,49.3242188 C49.2421875,50.9882812 51.2929688,52.3007812 53.6835938,53.2617188 C56.0742188,54.2226562 58.734375,54.703125 61.6640625,54.703125 Z M98.7890625,54.703125 C99.984375,54.703125 101.097656,54.5917969 102.128906,54.3691406 C103.160156,54.1464844 104.109375,53.8359375 104.976562,53.4375 C105.820312,53.0625 106.59375,52.6171875 107.296875,52.1015625 C108,51.5859375 108.621094,51.0351562 109.160156,50.4492188 C109.277344,51.1289062 109.417969,51.7734375 109.582031,52.3828125 C109.746094,52.9921875 109.945312,53.53125 110.179688,54 L120.09375,54 L120.09375,53.4023438 C119.601562,52.4414062 119.226562,51.2929688 118.96875,49.9570312 C118.710938,48.6210938 118.582031,46.9335938 118.582031,44.8945312 L118.582031,28.5820312 C118.582031,26.3789062 118.171875,24.4394531 117.351562,22.7636719 C116.53125,21.0878906 115.394531,19.6992188 113.941406,18.5976562 C112.488281,17.4960938 110.771484,16.6640625 108.791016,16.1015625 C106.810547,15.5390625 104.671875,15.2578125 102.375,15.2578125 C99.8203125,15.2578125 97.5527344,15.5800781 95.5722656,16.2246094 C93.5917969,16.8691406 91.921875,17.7421875 90.5625,18.84375 C89.1796875,19.9453125 88.1308594,21.2226562 87.4160156,22.6757812 C86.7011719,24.1289062 86.34375,25.6640625 86.34375,27.28125 L96.1171875,27.28125 C96.1171875,26.6015625 96.2167969,25.9804688 96.4160156,25.4179688 C96.6152344,24.8554688 96.9257812,24.375 97.3476562,23.9765625 C97.8164062,23.53125 98.4257812,23.1855469 99.1757812,22.9394531 C99.9257812,22.6933594 100.816406,22.5703125 101.847656,22.5703125 C103.019531,22.5703125 104.044922,22.7167969 104.923828,23.0097656 C105.802734,23.3027344 106.535156,23.71875 107.121094,24.2578125 C107.683594,24.7734375 108.105469,25.3886719 108.386719,26.1035156 C108.667969,26.8183594 108.808594,27.6210938 108.808594,28.5117188 L108.808594,30.7617188 L103.359375,30.7617188 C100.546875,30.7617188 98.0566406,31.0136719 95.8886719,31.5175781 C93.7207031,32.0214844 91.8984375,32.7539062 90.421875,33.7148438 C88.78125,34.7695312 87.5507812,36.1113281 86.7304688,37.7402344 C85.9101562,39.3691406 85.5,41.2382812 85.5,43.3476562 C85.5,44.9882812 85.828125,46.5058594 86.484375,47.9003906 C87.140625,49.2949219 88.0546875,50.4960938 89.2265625,51.5039062 C90.3984375,52.5117188 91.7988281,53.296875 93.4277344,53.859375 C95.0566406,54.421875 96.84375,54.703125 98.7890625,54.703125 Z M143.472656,54.703125 C145.605469,54.703125 147.480469,54.2929688 149.097656,53.4726562 C150.714844,52.6523438 152.121094,51.5039062 153.316406,50.0273438 L153.808594,54 L162.632812,54 L162.632812,0 L152.824219,0 L152.824219,19.3710938 C151.652344,18.0585938 150.310547,17.0449219 148.798828,16.3300781 C147.287109,15.6152344 145.535156,15.2578125 143.542969,15.2578125 C141.175781,15.2578125 139.072266,15.7265625 137.232422,16.6640625 C135.392578,17.6015625 133.828125,18.9257812 132.539062,20.6367188 C131.25,22.3476562 130.271484,24.3984375 129.603516,26.7890625 C128.935547,29.1796875 128.601562,31.8164062 128.601562,34.6992188 L128.601562,35.4375 C128.601562,38.203125 128.941406,40.7636719 129.621094,43.1191406 C130.300781,45.4746094 131.285156,47.5078125 132.574219,49.21875 C133.839844,50.9296875 135.392578,52.2714844 137.232422,53.2441406 C139.072266,54.2167969 141.152344,54.703125 143.472656,54.703125 Z M189.738281,54.7382812 C192.339844,54.7382812 194.695312,54.4511719 196.804688,53.8769531 C198.914062,53.3027344 200.71875,52.5 202.21875,51.46875 C203.695312,50.4375 204.837891,49.2128906 205.646484,47.7949219 C206.455078,46.3769531 206.859375,44.8242188 206.859375,43.1367188 C206.859375,41.3085938 206.455078,39.7324219 205.646484,38.4082031 C204.837891,37.0839844 203.71875,35.953125 202.289062,35.015625 C200.859375,34.1015625 199.160156,33.3515625 197.191406,32.765625 C195.222656,32.1796875 193.089844,31.6992188 190.792969,31.3242188 C189.199219,31.0898438 187.886719,30.8144531 186.855469,30.4980469 C185.824219,30.1816406 185.015625,29.8242188 184.429688,29.4257812 C183.820312,29.0507812 183.398438,28.6230469 183.164062,28.1425781 C182.929688,27.6621094 182.8125,27.140625 182.8125,26.578125 C182.8125,26.015625 182.947266,25.4824219 183.216797,24.9785156 C183.486328,24.4746094 183.878906,24.0351562 184.394531,23.6601562 C184.957031,23.2382812 185.683594,22.9101562 186.574219,22.6757812 C187.464844,22.4414062 188.507812,22.3242188 189.703125,22.3242188 C191.109375,22.3242188 192.310547,22.5 193.306641,22.8515625 C194.302734,23.203125 195.09375,23.671875 195.679688,24.2578125 C196.101562,24.703125 196.417969,25.2011719 196.628906,25.7519531 C196.839844,26.3027344 196.945312,26.8945312 196.945312,27.5273438 L206.71875,27.5273438 C206.71875,25.7695312 206.332031,24.140625 205.558594,22.640625 C204.785156,21.140625 203.671875,19.8398438 202.21875,18.7382812 C200.742188,17.6601562 198.949219,16.8105469 196.839844,16.1894531 C194.730469,15.5683594 192.351562,15.2578125 189.703125,15.2578125 C187.171875,15.2578125 184.898438,15.5742188 182.882812,16.2070312 C180.867188,16.8398438 179.15625,17.6953125 177.75,18.7734375 C176.34375,19.8515625 175.265625,21.1054688 174.515625,22.5351562 C173.765625,23.9648438 173.390625,25.4648438 173.390625,27.0351562 C173.390625,28.6523438 173.759766,30.0820312 174.498047,31.3242188 C175.236328,32.5664062 176.261719,33.65625 177.574219,34.59375 C178.886719,35.5546875 180.462891,36.3691406 182.302734,37.0371094 C184.142578,37.7050781 186.175781,38.2617188 188.402344,38.7070312 C190.160156,39.0351562 191.613281,39.3632812 192.761719,39.6914062 C193.910156,40.0195312 194.835938,40.3710938 195.539062,40.7460938 C196.21875,41.1445312 196.693359,41.5664062 196.962891,42.0117188 C197.232422,42.4570312 197.367188,42.9726562 197.367188,43.5585938 C197.367188,44.1445312 197.220703,44.6835938 196.927734,45.1757812 C196.634766,45.6679688 196.195312,46.1015625 195.609375,46.4765625 C195,46.8515625 194.220703,47.1503906 193.271484,47.3730469 C192.322266,47.5957031 191.214844,47.7070312 189.949219,47.7070312 C188.894531,47.7070312 187.869141,47.6015625 186.873047,47.390625 C185.876953,47.1796875 184.992188,46.8398438 184.21875,46.3710938 C183.445312,45.9257812 182.8125,45.3339844 182.320312,44.5957031 C181.828125,43.8574219 181.546875,42.9726562 181.476562,41.9414062 L172.160156,41.9414062 C172.160156,43.4882812 172.541016,45.0292969 173.302734,46.5644531 C174.064453,48.0996094 175.183594,49.4648438 176.660156,50.6601562 C178.136719,51.8789062 179.970703,52.8632812 182.162109,53.6132812 C184.353516,54.3632812 186.878906,54.7382812 189.738281,54.7382812 Z" id="heads-copy-2" stroke="#272727" fill-rule="nonzero"></path>
            <path d="M25.5614647,60.6897881 L25.5614647,57.3513166 L20.9668701,57.3513166 L20.9668701,38 L12,38 L12,41.3532434 L16.8020924,41.3532434 L16.8020924,57.3513166 L12,57.3513166 L12,60.6897881 L25.5614647,60.6897881 Z M36.3809939,61 C37.5765766,61 38.6437082,60.795654 39.5823888,60.3869621 C40.5210695,59.9782702 41.3115373,59.4095483 41.9537925,58.6807964 C42.5960477,57.9520445 43.0851497,57.0928067 43.4210985,56.1030829 C43.7570474,55.113359 43.9250218,54.0325412 43.9250218,52.8606294 L43.9250218,52.5504175 C43.9250218,51.3883537 43.7570474,50.3124599 43.4210985,49.322736 C43.0851497,48.3330122 42.5960477,47.4737744 41.9537925,46.7450225 C41.3016565,46.0162706 40.5062482,45.4450867 39.5675676,45.0314708 C38.628887,44.6178548 37.5568149,44.4110469 36.3513514,44.4110469 C35.1458878,44.4110469 34.076286,44.6178548 33.1425458,45.0314708 C32.2088056,45.4450867 31.4208079,46.0162706 30.7785527,46.7450225 C30.1264167,47.4737744 29.6323743,48.3330122 29.2964255,49.322736 C28.9604766,50.3124599 28.7925022,51.3883537 28.7925022,52.5504175 L28.7925022,52.8606294 C28.7925022,54.0325412 28.9604766,55.113359 29.2964255,56.1030829 C29.6323743,57.0928067 30.1264167,57.9520445 30.7785527,58.6807964 C31.4208079,59.4095483 32.213746,59.9782702 33.157367,60.3869621 C34.1009881,60.795654 35.1755304,61 36.3809939,61 Z M52.3731473,60.6897881 L54.0775937,52.1515735 L54.4036617,50.5266538 L54.744551,52.1515735 L56.5082825,60.6897881 L60.1246731,60.6897881 L63,44.7064868 L59.2205754,44.7064868 L58.0348736,54.1310212 L57.8273758,55.6820809 L57.5457716,54.1605652 L55.8116827,44.7064868 L53.0549259,44.7064868 L51.320837,54.2048812 L51.0392328,55.7263969 L50.8465562,54.2048812 L49.6460331,44.7064868 L45.8814298,44.7064868 L48.7567568,60.6897881 L52.3731473,60.6897881 Z" id="low-copy-2" stroke="#272727" stroke-width="0.85" fill="#272727" fill-rule="nonzero"></path>
        </g>
        <g id="Group" transform="translate(445.000000, 150.000000)">
            <path d="M100,19 C130.880418,19 157.868898,35.808981 172.464235,60.6349655 C172.535751,60.7566108 172.606969,60.8784486 172.677889,61.0004779 L27.2376829,61.0000372 C41.7616733,35.8923591 68.9081257,19 100,19 Z" id="Combined-Shape" fill="#FED500"></path>
            <path d="M9.7734375,54 L9.7734375,26.5429688 C10.1484375,26.0507812 10.5644531,25.6054688 11.0214844,25.2070312 C11.4785156,24.8085938 11.9882812,24.46875 12.5507812,24.1875 C13.1601562,23.859375 13.8398438,23.6132812 14.5898438,23.4492188 C15.3398438,23.2851562 16.1484375,23.203125 17.015625,23.203125 C18.140625,23.203125 19.1484375,23.3496094 20.0390625,23.6425781 C20.9296875,23.9355469 21.6914062,24.3867188 22.3242188,24.9960938 C22.9570312,25.6054688 23.4433594,26.4023438 23.7832031,27.3867188 C24.1230469,28.3710938 24.2929688,29.5429687 24.2929688,30.9023438 L24.2929688,54 L34.0664062,54 L34.0664062,30.9726563 C34.0664062,28.1835938 33.7324219,25.7988281 33.0644531,23.8183594 C32.3964844,21.8378906 31.4648438,20.2148438 30.2695312,18.9492188 C29.0742188,17.6835938 27.6445312,16.7519531 25.9804688,16.1542969 C24.3164062,15.5566406 22.4882812,15.2578125 20.4960938,15.2578125 C19.1367188,15.2578125 17.8476562,15.4570312 16.6289062,15.8554688 C15.4101562,16.2539062 14.296875,16.8164062 13.2890625,17.5429688 C12.6328125,18.0117188 12.0058594,18.5566406 11.4082031,19.1777344 C10.8105469,19.7988281 10.265625,20.4726562 9.7734375,21.1992188 L9.7734375,0 L0,0 L0,54 L9.7734375,54 Z M61.6640625,54.703125 C65.34375,54.703125 68.53125,53.9882812 71.2265625,52.5585938 C73.921875,51.1289062 75.890625,49.5351562 77.1328125,47.7773438 L72.2460938,42.5039062 C71.1210938,43.9570312 69.65625,45.046875 67.8515625,45.7734375 C66.046875,46.5 64.1835938,46.8632812 62.2617188,46.8632812 C60.9023438,46.8632812 59.6484375,46.6523438 58.5,46.2304688 C57.3515625,45.8085938 56.3320312,45.2109375 55.4414062,44.4375 C54.5742188,43.6875 53.8828125,42.8496094 53.3671875,41.9238281 C52.8515625,40.9980469 52.4296875,39.7734375 52.1015625,38.25 L52.1015625,38.1445312 L77.90625,38.1445312 L77.90625,33.9960938 C77.90625,31.2070312 77.5195312,28.6582031 76.7460938,26.3496094 C75.9726562,24.0410156 74.8476562,22.0664062 73.3710938,20.4257812 C71.8710938,18.7851562 70.0488281,17.5136719 67.9042969,16.6113281 C65.7597656,15.7089844 63.3164062,15.2578125 60.5742188,15.2578125 C57.9257812,15.2578125 55.4765625,15.7382812 53.2265625,16.6992188 C50.9765625,17.6601562 49.03125,19.0078125 47.390625,20.7421875 C45.75,22.4765625 44.4726562,24.5449219 43.5585938,26.9472656 C42.6445312,29.3496094 42.1875,32.0039062 42.1875,34.9101562 L42.1875,36.3164062 C42.1875,38.8710938 42.6503906,41.2675781 43.5761719,43.5058594 C44.5019531,45.7441406 45.8203125,47.6835938 47.53125,49.3242188 C49.2421875,50.9882812 51.2929688,52.3007812 53.6835938,53.2617188 C56.0742188,54.2226562 58.734375,54.703125 61.6640625,54.703125 Z M98.7890625,54.703125 C99.984375,54.703125 101.097656,54.5917969 102.128906,54.3691406 C103.160156,54.1464844 104.109375,53.8359375 104.976562,53.4375 C105.820312,53.0625 106.59375,52.6171875 107.296875,52.1015625 C108,51.5859375 108.621094,51.0351562 109.160156,50.4492188 C109.277344,51.1289062 109.417969,51.7734375 109.582031,52.3828125 C109.746094,52.9921875 109.945312,53.53125 110.179688,54 L120.09375,54 L120.09375,53.4023438 C119.601562,52.4414062 119.226562,51.2929688 118.96875,49.9570312 C118.710938,48.6210938 118.582031,46.9335938 118.582031,44.8945312 L118.582031,28.5820312 C118.582031,26.3789062 118.171875,24.4394531 117.351562,22.7636719 C116.53125,21.0878906 115.394531,19.6992188 113.941406,18.5976562 C112.488281,17.4960938 110.771484,16.6640625 108.791016,16.1015625 C106.810547,15.5390625 104.671875,15.2578125 102.375,15.2578125 C99.8203125,15.2578125 97.5527344,15.5800781 95.5722656,16.2246094 C93.5917969,16.8691406 91.921875,17.7421875 90.5625,18.84375 C89.1796875,19.9453125 88.1308594,21.2226562 87.4160156,22.6757812 C86.7011719,24.1289062 86.34375,25.6640625 86.34375,27.28125 L96.1171875,27.28125 C96.1171875,26.6015625 96.2167969,25.9804688 96.4160156,25.4179688 C96.6152344,24.8554688 96.9257812,24.375 97.3476562,23.9765625 C97.8164062,23.53125 98.4257812,23.1855469 99.1757812,22.9394531 C99.9257812,22.6933594 100.816406,22.5703125 101.847656,22.5703125 C103.019531,22.5703125 104.044922,22.7167969 104.923828,23.0097656 C105.802734,23.3027344 106.535156,23.71875 107.121094,24.2578125 C107.683594,24.7734375 108.105469,25.3886719 108.386719,26.1035156 C108.667969,26.8183594 108.808594,27.6210938 108.808594,28.5117188 L108.808594,30.7617188 L103.359375,30.7617188 C100.546875,30.7617188 98.0566406,31.0136719 95.8886719,31.5175781 C93.7207031,32.0214844 91.8984375,32.7539062 90.421875,33.7148438 C88.78125,34.7695312 87.5507812,36.1113281 86.7304688,37.7402344 C85.9101562,39.3691406 85.5,41.2382812 85.5,43.3476562 C85.5,44.9882812 85.828125,46.5058594 86.484375,47.9003906 C87.140625,49.2949219 88.0546875,50.4960938 89.2265625,51.5039062 C90.3984375,52.5117188 91.7988281,53.296875 93.4277344,53.859375 C95.0566406,54.421875 96.84375,54.703125 98.7890625,54.703125 Z M143.472656,54.703125 C145.605469,54.703125 147.480469,54.2929688 149.097656,53.4726562 C150.714844,52.6523438 152.121094,51.5039062 153.316406,50.0273438 L153.808594,54 L162.632812,54 L162.632812,0 L152.824219,0 L152.824219,19.3710938 C151.652344,18.0585938 150.310547,17.0449219 148.798828,16.3300781 C147.287109,15.6152344 145.535156,15.2578125 143.542969,15.2578125 C141.175781,15.2578125 139.072266,15.7265625 137.232422,16.6640625 C135.392578,17.6015625 133.828125,18.9257812 132.539062,20.6367188 C131.25,22.3476562 130.271484,24.3984375 129.603516,26.7890625 C128.935547,29.1796875 128.601562,31.8164062 128.601562,34.6992188 L128.601562,35.4375 C128.601562,38.203125 128.941406,40.7636719 129.621094,43.1191406 C130.300781,45.4746094 131.285156,47.5078125 132.574219,49.21875 C133.839844,50.9296875 135.392578,52.2714844 137.232422,53.2441406 C139.072266,54.2167969 141.152344,54.703125 143.472656,54.703125 Z M189.738281,54.7382812 C192.339844,54.7382812 194.695312,54.4511719 196.804688,53.8769531 C198.914062,53.3027344 200.71875,52.5 202.21875,51.46875 C203.695312,50.4375 204.837891,49.2128906 205.646484,47.7949219 C206.455078,46.3769531 206.859375,44.8242188 206.859375,43.1367188 C206.859375,41.3085938 206.455078,39.7324219 205.646484,38.4082031 C204.837891,37.0839844 203.71875,35.953125 202.289062,35.015625 C200.859375,34.1015625 199.160156,33.3515625 197.191406,32.765625 C195.222656,32.1796875 193.089844,31.6992188 190.792969,31.3242188 C189.199219,31.0898438 187.886719,30.8144531 186.855469,30.4980469 C185.824219,30.1816406 185.015625,29.8242188 184.429688,29.4257812 C183.820312,29.0507812 183.398438,28.6230469 183.164062,28.1425781 C182.929688,27.6621094 182.8125,27.140625 182.8125,26.578125 C182.8125,26.015625 182.947266,25.4824219 183.216797,24.9785156 C183.486328,24.4746094 183.878906,24.0351562 184.394531,23.6601562 C184.957031,23.2382812 185.683594,22.9101562 186.574219,22.6757812 C187.464844,22.4414062 188.507812,22.3242188 189.703125,22.3242188 C191.109375,22.3242188 192.310547,22.5 193.306641,22.8515625 C194.302734,23.203125 195.09375,23.671875 195.679688,24.2578125 C196.101562,24.703125 196.417969,25.2011719 196.628906,25.7519531 C196.839844,26.3027344 196.945312,26.8945312 196.945312,27.5273438 L206.71875,27.5273438 C206.71875,25.7695312 206.332031,24.140625 205.558594,22.640625 C204.785156,21.140625 203.671875,19.8398438 202.21875,18.7382812 C200.742188,17.6601562 198.949219,16.8105469 196.839844,16.1894531 C194.730469,15.5683594 192.351562,15.2578125 189.703125,15.2578125 C187.171875,15.2578125 184.898438,15.5742188 182.882812,16.2070312 C180.867188,16.8398438 179.15625,17.6953125 177.75,18.7734375 C176.34375,19.8515625 175.265625,21.1054688 174.515625,22.5351562 C173.765625,23.9648438 173.390625,25.4648438 173.390625,27.0351562 C173.390625,28.6523438 173.759766,30.0820312 174.498047,31.3242188 C175.236328,32.5664062 176.261719,33.65625 177.574219,34.59375 C178.886719,35.5546875 180.462891,36.3691406 182.302734,37.0371094 C184.142578,37.7050781 186.175781,38.2617188 188.402344,38.7070312 C190.160156,39.0351562 191.613281,39.3632812 192.761719,39.6914062 C193.910156,40.0195312 194.835938,40.3710938 195.539062,40.7460938 C196.21875,41.1445312 196.693359,41.5664062 196.962891,42.0117188 C197.232422,42.4570312 197.367188,42.9726562 197.367188,43.5585938 C197.367188,44.1445312 197.220703,44.6835938 196.927734,45.1757812 C196.634766,45.6679688 196.195312,46.1015625 195.609375,46.4765625 C195,46.8515625 194.220703,47.1503906 193.271484,47.3730469 C192.322266,47.5957031 191.214844,47.7070312 189.949219,47.7070312 C188.894531,47.7070312 187.869141,47.6015625 186.873047,47.390625 C185.876953,47.1796875 184.992188,46.8398438 184.21875,46.3710938 C183.445312,45.9257812 182.8125,45.3339844 182.320312,44.5957031 C181.828125,43.8574219 181.546875,42.9726562 181.476562,41.9414062 L172.160156,41.9414062 C172.160156,43.4882812 172.541016,45.0292969 173.302734,46.5644531 C174.064453,48.0996094 175.183594,49.4648438 176.660156,50.6601562 C178.136719,51.8789062 179.970703,52.8632812 182.162109,53.6132812 C184.353516,54.3632812 186.878906,54.7382812 189.738281,54.7382812 Z" id="heads-copy" stroke="#272727" fill="#FFFFFF" fill-rule="nonzero"></path>
            <path d="M25.5614647,60.6897881 L25.5614647,57.3513166 L20.9668701,57.3513166 L20.9668701,38 L12,38 L12,41.3532434 L16.8020924,41.3532434 L16.8020924,57.3513166 L12,57.3513166 L12,60.6897881 L25.5614647,60.6897881 Z M36.3809939,61 C37.5765766,61 38.6437082,60.795654 39.5823888,60.3869621 C40.5210695,59.9782702 41.3115373,59.4095483 41.9537925,58.6807964 C42.5960477,57.9520445 43.0851497,57.0928067 43.4210985,56.1030829 C43.7570474,55.113359 43.9250218,54.0325412 43.9250218,52.8606294 L43.9250218,52.5504175 C43.9250218,51.3883537 43.7570474,50.3124599 43.4210985,49.322736 C43.0851497,48.3330122 42.5960477,47.4737744 41.9537925,46.7450225 C41.3016565,46.0162706 40.5062482,45.4450867 39.5675676,45.0314708 C38.628887,44.6178548 37.5568149,44.4110469 36.3513514,44.4110469 C35.1458878,44.4110469 34.076286,44.6178548 33.1425458,45.0314708 C32.2088056,45.4450867 31.4208079,46.0162706 30.7785527,46.7450225 C30.1264167,47.4737744 29.6323743,48.3330122 29.2964255,49.322736 C28.9604766,50.3124599 28.7925022,51.3883537 28.7925022,52.5504175 L28.7925022,52.8606294 C28.7925022,54.0325412 28.9604766,55.113359 29.2964255,56.1030829 C29.6323743,57.0928067 30.1264167,57.9520445 30.7785527,58.6807964 C31.4208079,59.4095483 32.213746,59.9782702 33.157367,60.3869621 C34.1009881,60.795654 35.1755304,61 36.3809939,61 Z M52.3731473,60.6897881 L54.0775937,52.1515735 L54.4036617,50.5266538 L54.744551,52.1515735 L56.5082825,60.6897881 L60.1246731,60.6897881 L63,44.7064868 L59.2205754,44.7064868 L58.0348736,54.1310212 L57.8273758,55.6820809 L57.5457716,54.1605652 L55.8116827,44.7064868 L53.0549259,44.7064868 L51.320837,54.2048812 L51.0392328,55.7263969 L50.8465562,54.2048812 L49.6460331,44.7064868 L45.8814298,44.7064868 L48.7567568,60.6897881 L52.3731473,60.6897881 Z" id="low-copy" stroke="#272727" stroke-width="0.85" fill="#272727" fill-rule="nonzero"></path>
        </g>
        <g id="Group-7-Copy-2" transform="translate(71.000000, 300.000000)">
            <text id="heads" font-family="RobotoMono-Bold, Roboto Mono" font-size="94.1780822" font-weight="bold" letter-spacing="-6.5401448" fill="#272727">
                <tspan x="13.1849315" y="99">heads</tspan>
            </text>
            <g id="Group" transform="translate(0.000000, 65.924658)">
                <rect id="Rectangle" fill="#FFFFFF" x="0" y="1.88356164" width="275" height="12.2431507"></rect>
                <text id="low" font-family="RobotoMono-Bold, Roboto Mono" font-size="10.359589" font-weight="bold" fill="#272727">
                    <tspan x="127.431896" y="11">low</tspan>
                </text>
            </g>
        </g>
        <g id="Group-9" transform="translate(751.000000, 75.000000)">
            <path d="M210.453859,47 C235.582815,47 255.953859,67.3710439 255.953859,92.5 C255.953859,117.628956 235.582815,138 210.453859,138 L49.1633911,138 L46.6471823,137.900336 C25.5102022,137.063128 8.21191867,121.901921 3.95383716,101.989895 L202.046859,47 L210.453859,47 Z" id="Combined-Shape" fill="#FE6100"></path>
            <path d="M201.241,47.587239 L2.16448029,103.298203 C1.40239053,99.9962884 1,96.5590295 1,93.0308492 L1,92.172689 C1,67.5492204 20.9612653,47.5879552 45.5847338,47.5879552 L201.241,47.587239 Z" id="Combined-Shape" fill="#FFB000" transform="translate(101.120584, 75.442721) scale(1, -1) rotate(31.000000) translate(-101.120584, -75.442721) "></path>
            <text id="heads" transform="translate(176.715606, 91.488919) rotate(-31.000000) translate(-176.715606, -91.488919) " font-family="RobotoMono-Bold, Roboto Mono" font-size="36" font-weight="bold" fill="#FFB000">
                <tspan x="122.215606" y="105.488919">heads</tspan>
            </text>
            <text id="low" transform="translate(64.937553, 102.561988) rotate(-31.000000) translate(-64.937553, -102.561988) " font-family="RobotoMono-Light, Roboto Mono" font-size="36" font-weight="300" fill="#FE6100">
                <tspan x="32.4375534" y="116.561988">low</tspan>
            </text>
        </g>
        <g id="Group-Copy" transform="translate(411.000000, 296.000000)" fill="#272727" font-family="RobotoMono-Bold, Roboto Mono" font-weight="bold">
            <text id="heads-copy-13" font-size="89.673913">
                <tspan x="0.934474779" y="109.234588">heads</tspan>
            </text>
            <text id="low-copy" transform="translate(146.453844, 30.891304) rotate(90.000000) translate(-146.453844, -30.891304) " font-size="26.9021739">
                <tspan x="122.237947" y="41.3913043">low</tspan>
            </text>
            <text id="low" transform="translate(102.273044, 30.583867) rotate(45.000000) translate(-102.273044, -30.583867) " font-size="26.9021739">
                <tspan x="78.0571467" y="41.0838666">low</tspan>
            </text>
            <text id="low-copy-2" transform="translate(245.965715, 31.032634) rotate(155.000000) translate(-245.965715, -31.032634) " font-size="26.9021739">
                <tspan x="221.749818" y="41.5326338">low</tspan>
            </text>
            <text id="low" transform="translate(47.039562, 30.230025) rotate(20.000000) translate(-47.039562, -30.230025) " font-size="26.9021739">
                <tspan x="22.8236651" y="40.7300249">low</tspan>
            </text>
            <text id="low-copy-3" transform="translate(190.379955, 30.946025) rotate(135.000000) translate(-190.379955, -30.946025) " font-size="26.9021739">
                <tspan x="166.164058" y="41.4460247">low</tspan>
            </text>
        </g>
        <g id="Group-3" transform="translate(752.000000, 300.000000)">
            <text id="low-copy-3" font-family="EpilogueRoman-ExtraLight, Epilogue" font-size="60" font-weight="300" fill="#272727">
                <tspan x="85.2732418" y="50.3333333">low</tspan>
            </text>
            <text id="heads-copy-2" font-family="EpilogueRoman-SemiBold, Epilogue" font-size="60" font-weight="500" fill="#272727">
                <tspan x="87.7098901" y="112">heads</tspan>
            </text>
            <g id="Group-2" transform="translate(42.397174, 60.274071) rotate(-12.000000) translate(-42.397174, -60.274071) translate(10.897174, 5.774071)" stroke="#272727">
                <path d="M28.2691072,32.7599211 C25.5597108,32.7599211 23.3553464,33.2965062 21.5714928,34.3183965 C19.686211,35.3983904 18.283461,37.0166952 17.2281983,39.0500062 C14.4939054,44.3185218 14.0366271,52.2545357 14.0191051,61.2621095 C14.0191072,69.9770902 14.8344805,77.8080232 17.5880966,83.1137714 C18.69973,85.2556992 20.1303312,86.9723559 21.9805052,88.1213026 C23.7013473,89.1899349 25.7793068,89.7599211 28.2691072,89.7599211 C30.7589076,89.7599211 32.8368672,89.1899349 34.5577093,88.1213026 C36.4078833,86.9723559 37.8384844,85.2556992 38.9501178,83.1137714 C41.703734,77.8080232 42.5191072,69.9770902 42.5191072,61.2599211 C42.5191072,52.3589351 42.0979598,44.3784986 39.3419478,39.068134 C38.2864287,37.0343288 36.879836,35.4094291 34.985118,34.3240554 C33.1978815,33.3002516 30.9877129,32.7599211 28.2691072,32.7599211 Z" id="Oval" stroke-width="2.25" transform="translate(28.269107, 61.259921) rotate(-6.000000) translate(-28.269107, -61.259921) "></path>
                <path d="M7.94533185,54.734123 C7.94533185,65.8094265 9.25364761,77.2674153 13.2370616,85.2348683 C14.8432126,88.4474222 16.8845047,91.0862244 19.4701168,92.8683449 C21.8108763,94.4817019 24.5967667,95.3849211 27.8941072,95.3849211 C35.4566459,95.3849211 41.4862599,91.3873036 45.7355376,85.1255434 C50.4774712,78.1378024 53.0163096,68.346349 53.0163096,58.0094933 C53.0163096,56.28859 53.0309417,54.5685841 53.0454914,52.8593166 C53.1336417,42.503622 53.2489564,32.5377441 49.9661892,25.2232225 C47.5957509,19.9415129 43.4129162,16.0912421 36.1078854,14.5364474 C32.1411949,13.6921813 28.601744,14.0993374 25.4879934,15.4598058 C22.0256595,16.9725782 19.0933246,19.6545235 16.6714296,23.0647629 C10.8213789,31.3021444 7.94533185,43.7635549 7.94533185,54.734123 Z" id="Oval" stroke-width="1.5"></path>
                <path d="M3.86110305,48.7441496 C0.501911683,64.0592138 -1.01566773,79.3441424 2.81165599,90.5344581 C4.37733609,95.1121881 6.84233331,98.9980449 10.4612694,101.897474 C13.8030773,104.574872 18.1248794,106.40809 23.6109977,107.186731 C28.7142781,107.911036 33.003756,107.341926 36.6266439,105.75699 C40.6198074,104.010067 43.7977626,101.032697 46.372188,97.2323255 C53.3438835,86.9406949 55.9138646,70.6673185 57.9817834,55.9880328 C58.4217414,52.8649557 58.9327554,49.7539007 59.4362237,46.6890786 C61.46797,34.320988 63.4159858,22.7040555 59.9063353,14.150795 C57.3178447,7.84246464 51.711349,3.26525482 40.9934009,1.28348034 C29.7700642,-0.79174173 22.5603026,1.74758404 17.607298,7.30246108 C10.9573275,14.7605136 8.32832281,27.5056032 5.40253669,41.4934582 C4.9032727,43.8803833 4.39636834,46.3037938 3.86110305,48.7441496 Z" id="Oval" stroke-width="1.125"></path>
                <path d="M28.1131755,45.4715806 C24.7876281,45.4715806 22.5670182,46.6902968 21.1852505,49.0706702 C19.4505384,52.0590613 18.9256531,56.6068085 18.9256531,62.3829917 C18.9256531,67.9702962 19.8089029,72.5283649 21.692104,75.6354845 C23.3111102,78.3067054 25.7031772,79.8121027 28.8984403,79.8121027 C30.3846106,79.8121027 31.6479976,79.4984711 32.7040783,78.8680469 C33.8037941,78.2115748 34.66875,77.2196051 35.3553114,75.9550602 C37.0538241,72.8266502 37.6756531,68.150633 37.6756531,62.3829917 C37.6756531,56.6627809 37.0627632,52.1488721 35.2700433,49.1652274 C33.8060665,46.7287137 31.4940028,45.4715806 28.1131755,45.4715806 Z" id="Oval" stroke-width="3" transform="translate(28.300653, 62.641842) rotate(-7.000000) translate(-28.300653, -62.641842) "></path>
            </g>
        </g>
    </g>
</svg>